<?xml version="1.0" encoding="utf-8"?>
<!-- Generator: Adobe Illustrator 14.0.0, SVG Export Plug-In . SVG Version: 6.00 Build 43363)  -->
<!DOCTYPE svg PUBLIC "-//W3C//DTD SVG 1.1//EN" "http://www.w3.org/Graphics/SVG/1.1/DTD/svg11.dtd">
<svg version="1.1" id="Layer_1" xmlns="http://www.w3.org/2000/svg" xmlns:xlink="http://www.w3.org/1999/xlink" x="0px" y="0px"
	  viewBox="0 351.156 863.026 171.911" enable-background="new 0 351.156 863.026 171.911"
	 xml:space="preserve">
<g>
	<polygon fill="#FFF" points="85.552,523.067 66.095,523.067 66.095,503.712 	"/>
	<polygon fill="#FFF" points="51.304,403.283 51.304,522.964 0,522.964 0,351.962 	"/>
	<rect x="51.304" y="351.156" fill="#FFF" width="52.127" height="52.127"/>
	<polygon fill="#FFF" points="103.312,453.403 66.095,416.152 66.095,484.237 103.174,521.334 153.552,470.956 153.552,522.964 
		204.873,522.964 204.873,351.842 	"/>
</g>
<path fill="#FFF" d="M283.593,492.566v-28.345l-12.914,18.786h-0.187l-12.914-18.786v28.345h-2.331v-32.635h2.284l13.101,19.302
	l13.1-19.302h2.285v32.635H283.593z"/>
<path fill="#FFF" d="M327.881,492.566l-4.148-9.139h-19.254l-4.149,9.139h-2.518l15.198-32.867h2.331l15.199,32.867H327.881z
	 M314.128,462.356l-8.625,18.882h17.203L314.128,462.356z"/>
<path fill="#FFF" d="M365.829,492.566l-10.397-13.521h-10.676v13.521h-2.424v-32.635h13.707c7.04,0,11.655,3.822,11.655,9.277
	v0.094c0,5.454-4.057,8.577-9.558,9.322l10.77,13.94L365.829,492.566L365.829,492.566z M365.27,469.304
	c0-4.383-3.449-7.134-9.37-7.134h-11.144v14.687h11.002c5.455,0,9.511-2.751,9.511-7.46L365.27,469.304L365.27,469.304z"/>
<path fill="#FFF" d="M404.896,492.566l-13.428-16.503l-8.11,8.204v8.299h-2.426v-32.635h2.426v21.444l20.792-21.444h3.311
	l-14.267,14.406l14.873,18.229H404.896z"/>
<path fill="#FFF" d="M419.16,492.566v-32.635h23.217v2.237h-20.792v12.82h18.695v2.239h-18.695v13.101h21.026v2.236
	L419.16,492.566L419.16,492.566z"/>
<path fill="#FFF" d="M466.759,462.17v30.396h-2.425V462.17h-11.375v-2.237h25.176v2.237H466.759z"/>
<path fill="#FFF" d="M490.72,492.566v-32.635h2.425v32.635H490.72z"/>
<path fill="#FFF" d="M533.378,492.566l-22.985-28.997v28.997h-2.33v-32.635h2.284l22.52,28.394v-28.394h2.33v32.635H533.378z"/>
<path fill="#FFF" d="M564.752,493.126c-10.305,0-16.411-7.599-16.411-16.784v-0.093c0-8.811,6.388-16.876,16.131-16.876
	c5.314,0,8.672,1.584,11.937,4.289l-1.587,1.818c-2.562-2.238-5.546-3.916-10.488-3.916c-7.926,0-13.473,6.713-13.473,14.592v0.093
	c0,8.438,5.268,14.732,13.984,14.732c4.15,0,8.021-1.726,10.397-3.729v-9.371h-10.91v-2.238h13.24v12.591
	C574.635,490.841,570.066,493.126,564.752,493.126z"/>
<path fill="#FFF" d="M625.284,490.065c-2.5,1.907-5.381,3.011-8.813,3.011c-6.062,0-10.598-3.18-10.598-8.562v-0.085
	c0-3.688,1.992-6.483,6.019-8.308c-1.356-1.949-1.948-3.772-1.948-5.68v-0.085c0-4.322,3.518-8.054,9.323-8.054
	c5.385,0,8.817,3.307,8.817,7.629v0.085c0,3.646-2.331,6.104-5.807,7.714l3.305,3.222c0.975-1.397,1.908-3.008,2.798-4.704
	l5.425,2.713c-1.228,2.245-2.5,4.366-3.897,6.273l3.982,3.94l-5.552,3.984L625.284,490.065z M621.089,485.742l-4.874-4.959
	c-1.481,0.891-2.119,2.035-2.119,3.222v0.086c0,1.736,1.44,2.924,3.477,2.924C618.759,487.015,619.946,486.506,621.089,485.742z
	 M621.555,470.397v-0.085c0-1.439-0.932-2.372-2.288-2.372c-1.397,0-2.372,1.06-2.372,2.629v0.084c0,1.145,0.509,2.118,1.525,3.391
	C620.538,473.111,621.555,471.967,621.555,470.397z"/>
<path fill="#FFF" d="M673.326,492.566h-10.862v-32.635h10.862c10.257,0,17.344,7.04,17.344,16.225v0.093
	C690.67,485.434,683.583,492.566,673.326,492.566z M688.152,476.249c0-7.738-5.735-14.079-14.826-14.079h-8.438v28.16h8.438
	c9.091,0,14.826-6.201,14.826-13.988V476.249z"/>
<path fill="#FFF" d="M704.375,492.566v-32.635h23.217v2.237h-20.793v12.82h18.694v2.239h-18.694v13.101h21.025v2.236
	L704.375,492.566L704.375,492.566z"/>
<path fill="#FFF" d="M752.112,493.032c-5.222,0-9.229-1.725-13.146-5.223l1.584-1.816c3.591,3.311,6.9,4.848,11.702,4.848
	c4.896,0,8.252-2.75,8.252-6.479v-0.094c0-3.448-1.818-5.454-9.23-6.945c-7.831-1.585-11.004-4.243-11.004-9.187v-0.093
	c0-4.849,4.431-8.577,10.491-8.577c4.754,0,7.88,1.305,11.188,3.962l-1.539,1.911c-3.076-2.656-6.154-3.683-9.742-3.683
	c-4.804,0-7.972,2.751-7.972,6.153v0.095c0,3.45,1.77,5.547,9.509,7.133c7.554,1.538,10.724,4.241,10.724,8.997v0.094
	C762.93,489.396,758.406,493.032,752.112,493.032z"/>
<path fill="#FFF" d="M777.056,492.566v-32.635h2.423v32.635H777.056z"/>
<path fill="#FFF" d="M808.428,493.126c-10.302,0-16.409-7.599-16.409-16.784v-0.093c0-8.811,6.389-16.876,16.132-16.876
	c5.313,0,8.67,1.584,11.935,4.289l-1.586,1.818c-2.563-2.238-5.547-3.916-10.488-3.916c-7.925,0-13.476,6.713-13.476,14.592v0.093
	c0,8.438,5.27,14.732,13.988,14.732c4.147,0,8.018-1.726,10.396-3.729v-9.371H808.01v-2.238h13.239v12.591
	C818.312,490.841,813.744,493.126,808.428,493.126z"/>
<path fill="#FFF" d="M860.224,492.566l-22.983-28.997v28.997h-2.33v-32.635h2.282l22.519,28.394v-28.394h2.331v32.635H860.224z"
	/>
<g>
	<path fill="#FFF" d="M254.7,389.896h22.966c7.424,0,12.558,1.943,15.819,5.273c2.845,2.775,4.302,6.521,4.302,11.31v0.139
		c0,7.424-3.955,12.351-9.991,14.917l11.587,16.929h-15.542l-9.783-14.709h-0.139h-5.759v14.709H254.7V389.896z M277.042,413.208
		c4.579,0,7.215-2.22,7.215-5.759v-0.14c0-3.815-2.775-5.758-7.285-5.758h-8.812v11.657L277.042,413.208L277.042,413.208z"/>
	<path fill="#FFF" d="M333.933,389.548h12.976l20.676,48.915h-14.431l-3.539-8.672H330.88l-3.469,8.672h-14.154L333.933,389.548z
		 M345.728,419.312l-5.411-13.807l-5.481,13.807H345.728z"/>
	<path fill="#FFF" d="M388.743,420.285l-18.456-30.39h15.334l9.991,17.693l10.061-17.693h15.056l-18.455,30.182v18.386h-13.529
		L388.743,420.285L388.743,420.285z"/>
	<path fill="#FFF" d="M466.031,389.896h14.224l11.587,18.802l11.587-18.802h14.224v48.567h-13.392v-27.892l-12.419,19.012h-0.277
		l-12.351-18.873v27.753h-13.183V389.896z"/>
	<path fill="#FFF" d="M539.506,389.896h39.062v11.448h-25.74v7.354h23.312v10.616h-23.312v7.7h26.086v11.449h-39.407
		L539.506,389.896L539.506,389.896z"/>
	<path fill="#FFF" d="M595.356,431.247l7.491-8.951c4.788,3.816,10.131,5.829,15.75,5.829c3.608,0,5.551-1.249,5.551-3.331
		v-0.139c0-2.011-1.596-3.121-8.187-4.647c-10.339-2.359-18.317-5.273-18.317-15.265v-0.141c0-9.019,7.146-15.541,18.805-15.541
		c8.255,0,14.708,2.22,19.979,6.453l-6.729,9.503c-4.439-3.122-9.296-4.787-13.599-4.787c-3.262,0-4.856,1.388-4.856,3.122v0.139
		c0,2.221,1.665,3.191,8.395,4.718c11.172,2.429,18.109,6.037,18.109,15.125v0.14c0,9.922-7.841,15.818-19.635,15.818
		C609.51,439.295,601.321,436.589,595.356,431.247z"/>
	<path fill="#FFF" d="M651.207,431.247l7.493-8.951c4.787,3.816,10.129,5.829,15.749,5.829c3.606,0,5.552-1.249,5.552-3.331
		v-0.139c0-2.011-1.597-3.121-8.188-4.647c-10.339-2.359-18.316-5.273-18.316-15.265v-0.141c0-9.019,7.146-15.541,18.802-15.541
		c8.258,0,14.71,2.22,19.983,6.453l-6.731,9.503c-4.439-3.122-9.297-4.787-13.599-4.787c-3.262,0-4.856,1.388-4.856,3.122v0.139
		c0,2.221,1.665,3.191,8.396,4.718c11.169,2.429,18.106,6.037,18.106,15.125v0.14c0,9.922-7.84,15.818-19.636,15.818
		C665.359,439.295,657.174,436.589,651.207,431.247z"/>
	<path fill="#FFF" d="M712.955,389.896h13.528v48.567h-13.528V389.896z"/>
	<path fill="#FFF" d="M747.645,389.896h12.559l19.982,25.672v-25.672h13.321v48.567H781.71l-20.744-26.643v26.643h-13.321
		V389.896z"/>
	<path fill="#FFF" d="M829.375,389.548h12.974l20.678,48.915h-14.433l-3.539-8.672h-18.732l-3.469,8.672h-14.154L829.375,389.548
		z M841.168,419.312l-5.41-13.807l-5.48,13.807H841.168z"/>
</g>
</svg>
